# xmcd
#
# Track frame offsets: 
#        150
#        17742
#        35967
#        41120
#        59420
#        71120
#        100120
#        119070
#        131995
#        143752
#        155582
#        180985
#        204370
#
# Disc length: 2796 seconds
#
# Revision: 9
# Processed by: cddbd v1.5.2PL0 Copyright (c) Steve Scherf et al.
# Submitted via: ExactAudioCopyFreeDBPlugin 1.0
#
DISCID=c60aea0d
DTITLE=Yo-Yo Ma and Bobby McFerrin - Hush
DYEAR=1991
DGENRE=Classical
TTITLE0=McFerrin - Grace
TTITLE1=Vivaldi - Andante (from Concerto in D minor for 2 Mandolins)
TTITLE2=Rimsky-Korsakov - Flight of the Bumblebee
TTITLE3=McFerrin - Stars
TTITLE4=Traditional - Hush Little Baby (arrangement Bobby McFerrin)
TTITLE5=Rachmaninoff - Vocalise
TTITLE6=J.S. Bach - Musette (from the Notebook for Anna Magdalena Bach
TTITLE6=)
TTITLE7=McFerrin - Coyote
TTITLE8=Barriere - Allegro Prestissimo (from Sonata for 2 Cellos)
TTITLE9=Gounod-Bach - Ave Maria
TTITLE10=McFerrin - Hoedown!
TTITLE11=J.S. Bach - Air (from Orchestral Suite Number 3)
TTITLE12=McFerrin - Good-Bye
EXTD=YEAR: 1991 ID3G: 32
EXTT0=McFerrin
EXTT1=Vivaldi
EXTT2=Rimsky-Korsakov
EXTT3=McFerrin
EXTT4=Traditional
EXTT5=Rachmaninoff
EXTT6=J.S. Bach
EXTT7=McFerrin
EXTT8=Barrière
EXTT9=Gounod/Bach
EXTT10=McFerrin
EXTT11=J.S. Bach
EXTT12=McFerrin
PLAYORDER=
